:SAMPLES-PER-SECOND 30
:FULLY-SPECIFIED
:DEGREES
240
root  -13.7474 40.7207 -1.95238 73.7438 84.1101 71.9921
RightUpLeg  3.28419 -11.4957 -8.5333
RightLeg  9.11448 -8.86923 2.99515
RightFoot  -14.9368 0.00820876 3.48631
RightToes  0.000482159 0.542163 -0.142577
Spine  7.83013 0.816007 -1.54924
Spine1  -0.687531 1.24709 -2.05464
HEad  0.911747 2.93216 0.0554714
LeftShoulder1  0.760023 -2.04308 -5.89667
LeftArm  -29.7385 13.6359 -1.08
LeftForeArm  14.9694 -12.7188 1.08812
LeftHand  -0.25398 0.0180481 5.50724
RightShoulder  0.331323 -1.18348 6.62909
RightArm  -29.289 -6.12577 -0.343886
RightForeArm  -9.89948 11.8672 2.74027
RightHand  -4.60162 12.7238 -29.3171
LeftUpLeg  -5.25643 2.84198 -3.7479
LeftLeg  5.39355 17.0895 -3.46842
LeftFoot  -2.86177 -0.072349 1.20862
LeftToes  1.06246e-005 4.65854e-005 -8.18503e-006
241
root  -13.5692 40.7131 -2.15229 69.2611 83.99 67.6052
RightUpLeg  3.79151 -11.5658 -8.98062
RightLeg  8.79007 -8.19316 3.14292
RightFoot  -15.0447 0.0173595 3.68943
RightToes  0.000482159 0.542163 -0.142577
Spine  7.43777 0.951894 -1.20375
Spine1  -0.409251 1.47067 -2.36864
HEad  0.771448 2.91821 -0.189527
LeftShoulder1  0.71807 -1.97332 -5.23486
LeftArm  -26.595 12.9574 -1.68406
LeftForeArm  13.2842 -9.02545 1.34067
LeftHand  -0.25398 0.0180481 5.50724
RightShoulder  0.337369 -1.08659 6.26963
RightArm  -28.0864 -5.64773 -0.133729
RightForeArm  -8.75272 8.90717 2.26018
RightHand  -4.31093 12.2211 -28.3099
LeftUpLeg  -4.78424 2.82736 -3.93616
LeftLeg  5.41343 17.4814 -3.54154
LeftFoot  -3.74428 -0.0520706 1.12677
LeftToes  1.06246e-005 4.65854e-005 -8.18503e-006
242
root  -13.332 40.7004 -2.37545 62.6999 83.6512 61.1221
RightUpLeg  4.23081 -11.693 -9.54709
RightLeg  8.61949 -7.10512 3.18027
RightFoot  -15.1565 0.0379187 4.22151
RightToes  0.000482159 0.542163 -0.142577
Spine  7.01075 1.19461 -1.04191
Spine1  -0.141586 1.74789 -2.43597
HEad  0.86154 3.04514 -0.497068
LeftShoulder1  0.687681 -1.76765 -5.16022
LeftArm  -24.8428 12.82 -2.26385
LeftForeArm  12.3567 -6.25175 1.17946
LeftHand  -0.25398 0.0180481 5.50724
RightShoulder  0.364337 -0.875175 6.15811
RightArm  -27.3476 -5.26061 0.037468
RightForeArm  -9.34553 6.76216 2.07813
RightHand  -4.06221 11.7064 -27.5219
LeftUpLeg  -4.3918 2.80427 -4.29182
LeftLeg  5.70828 18.21 -3.37383
LeftFoot  -4.72144 -0.025503 0.932166
LeftToes  1.06246e-005 4.65854e-005 -8.18503e-006
243
root  -13.0417 40.6734 -2.59722 58.4379 83.2602 56.9487
RightUpLeg  4.53939 -11.9518 -10.146
RightLeg  8.94064 -6.30409 2.92915
RightFoot  -15.3346 0.0636148 4.80564
RightToes  0.000482159 0.542163 -0.142577
Spine  6.61794 1.37891 -1.14576
Spine1  0.0353648 1.92671 -2.3496
HEad  1.10263 3.18147 -0.476154
LeftShoulder1  0.688147 -1.63689 -5.53613
LeftArm  -23.763 13.2215 -2.78245
LeftForeArm  11.2102 -4.66808 1.09206
LeftHand  -0.25398 0.0180481 5.50724
RightShoulder  0.411106 -0.621324 6.61186
RightArm  -26.9531 -5.48409 0.141389
RightForeArm  -11.2757 6.36741 2.22416
RightHand  -3.80808 11.012 -26.9228
LeftUpLeg  -3.95409 2.78107 -4.7836
LeftLeg  6.19197 18.7161 -3.02456
LeftFoot  -6.01102 0.0244438 0.236819
LeftToes  1.06246e-005 4.65854e-005 -8.18503e-006
244
root  -12.7189 40.6145 -2.81126 55.6503 82.9539 54.3075
RightUpLeg  4.60753 -12.759 -10.6391
RightLeg  10.0194 -5.23154 2.32896
RightFoot  -15.8147 0.0871107 4.97757
RightToes  0.000482159 0.542163 -0.142577
Spine  6.34988 1.50262 -1.30689
Spine1  0.157328 2.0626 -2.44743
HEad  1.4099 3.14511 0.027686
LeftShoulder1  0.727926 -1.71568 -6.16127
LeftArm  -23.4658 14.1573 -3.23079
LeftForeArm  10.0032 -4.26484 1.13463
LeftHand  -0.25398 0.0180481 5.50724
RightShoulder  0.470935 -0.393994 7.60308
RightArm  -26.5004 -6.29507 0.23459
RightForeArm  -12.6313 7.43228 2.59032
RightHand  -3.59145 10.3509 -26.4772
LeftUpLeg  -3.40696 2.84405 -5.17478
LeftLeg  6.81967 18.8024 -2.7358
LeftFoot  -7.79705 0.0749745 -0.935233
LeftToes  1.06246e-005 4.65854e-005 -8.18503e-006
245
root  -12.401 40.5007 -3.02744 51.4926 82.4937 50.3546
RightUpLeg  3.7411 -14.6171 -10.9629
RightLeg  12.7865 -2.60689 1.14094
RightFoot  -16.5599 0.129705 5.28418
RightToes  0.000482159 0.542163 -0.142577
Spine  6.41662 1.68246 -1.50776
Spine1  0.104847 2.25993 -2.77343
HEad  1.77971 3.00186 0.743846
LeftShoulder1  0.788534 -1.83967 -7.07119
LeftArm  -23.6143 15.4806 -3.57662
LeftForeArm  8.96764 -4.69065 1.25299
LeftHand  -0.25398 0.0180481 5.50724
RightShoulder  0.556344 -0.0962172 8.9226
RightArm  -25.6093 -7.27153 0.357964
RightForeArm  -11.5788 8.98517 3.00452
RightHand  -3.46978 10.1207 -25.9854
LeftUpLeg  -2.96823 3.22594 -5.36646
LeftLeg  7.83804 18.7725 -2.66601
LeftFoot  -9.82919 0.0871994 -2.11834
LeftToes  1.06246e-005 4.65854e-005 -8.18503e-006
246
root  -12.1242 40.3332 -3.25604 45.8343 81.5502 45.0644
RightUpLeg  1.11048 -15.0362 -11.1344
RightLeg  18.5734 -0.828631 -0.566161
RightFoot  -16.6375 0.191464 6.60262
RightToes  0.000482159 0.542163 -0.142577
Spine  7.19421 1.99745 -1.92879
Spine1  -0.259418 2.54745 -3.13288
HEad  1.91 2.94576 1.26889
LeftShoulder1  0.825705 -1.66445 -8.43599
LeftArm  -23.8638 16.6262 -3.89738
LeftForeArm  8.2791 -5.25555 1.37664
LeftHand  -0.25398 0.0180481 5.50724
RightShoulder  0.682186 0.37442 10.3354
RightArm  -24.1903 -8.19584 0.5849
RightForeArm  -8.38423 10.3798 3.3654
RightHand  -3.37357 10.152 -25.2516
LeftUpLeg  -2.6247 3.99855 -5.62556
LeftLeg  9.25291 19.0107 -2.67444
LeftFoot  -11.7055 0.0615381 -2.88514
LeftToes  1.06246e-005 4.65854e-005 -8.18503e-006
247
root  -11.8899 40.1365 -3.49367 40.7854 80.1541 40.7539
RightUpLeg  -3.11113 -10.7349 -11.5608
RightLeg  27.5812 -3.41632 -2.19466
RightFoot  -14.7994 0.152037 8.46721
RightToes  0.000482159 0.542163 -0.142577
Spine  8.78917 2.42845 -2.51185
Spine1  -0.631998 2.92484 -3.55062
HEad  1.20613 2.95764 1.49695
LeftShoulder1  0.820154 -1.17009 -10.1539
LeftArm  -24.178 17.0645 -4.57259
LeftForeArm  7.51315 -5.35103 1.50127
LeftHand  -0.25398 0.0180481 5.50724
RightShoulder  0.835211 0.93392 11.7094
RightArm  -22.4698 -9.22473 1.08249
RightForeArm  -4.94275 11.5368 3.65609
RightHand  -3.15487 9.77247 -24.249
LeftUpLeg  -2.08328 4.85569 -6.24882
LeftLeg  10.8472 19.6347 -2.42806
LeftFoot  -13.3565 0.0237103 -3.22207
LeftToes  1.06246e-005 4.65854e-005 -8.18503e-006
248
root  -11.6453 39.9601 -3.72512 37.0083 78.7931 38.0094
RightUpLeg  -7.83184 -7.38595 -12.2105
RightLeg  37.3878 -4.24841 -3.70223
RightFoot  -11.0844 -0.0939205 9.54392
RightToes  0.000482159 0.542163 -0.142577
Spine  10.5984 2.80876 -2.75863
Spine1  -0.462333 3.33784 -4.21917
HEad  -0.381409 2.89602 1.58265
LeftShoulder1  0.830565 -0.853698 -11.7869
LeftArm  -24.6199 17.0949 -6.00424
LeftForeArm  6.09551 -4.94511 1.64123
LeftHand  -0.25398 0.0180481 5.50724
RightShoulder  1.00391 1.47243 13.2054
RightArm  -20.8765 -10.4829 1.94459
RightForeArm  -2.32615 12.4592 3.85346
RightHand  -2.76479 8.70296 -22.9113
LeftUpLeg  -1.1867 5.51392 -7.04096
LeftLeg  12.2384 20.3548 -1.92279
LeftFoot  -14.7893 -0.0106766 -3.30397
LeftToes  1.06246e-005 4.65854e-005 -8.18503e-006
249
root  -11.3263 39.8345 -3.92696 34.1746 77.9143 36.0162
RightUpLeg  -12.3709 -5.04865 -12.3926
RightLeg  45.001 -3.08483 -3.58107
RightFoot  -7.68415 -0.347493 9.27436
RightToes  0.000482159 0.542163 -0.142577
Spine  11.7854 2.91411 -2.53192
Spine1  0.265404 3.58427 -5.05189
HEad  -1.94754 2.88948 1.51202
LeftShoulder1  0.9362 -1.11542 -13.1249
LeftArm  -25.0757 17.5365 -8.15754
LeftForeArm  4.47425 -4.49633 1.77767
LeftHand  -0.25398 0.0180481 5.50724
RightShoulder  1.21741 2.04997 15.1186
RightArm  -19.597 -11.7844 3.06699
RightForeArm  -0.310651 12.9956 3.95812
RightHand  -2.32483 7.43328 -21.2322
LeftUpLeg  -0.23651 5.96623 -7.56364
LeftLeg  13.2514 20.7882 -1.47446
LeftFoot  -15.9595 -0.0373668 -3.2992
LeftToes  1.06246e-005 4.65854e-005 -8.18503e-006
250
root  -10.9031 39.7885 -4.09521 31.5042 77.7712 33.6342
RightUpLeg  -16.2978 -3.74336 -11.6267
RightLeg  48.5355 -1.40695 -2.06654
RightFoot  -6.18087 -0.426102 8.48462
RightToes  0.000482159 0.542163 -0.142577
Spine  12.1687 2.62486 -2.00618
Spine1  0.958886 3.41078 -5.42485
HEad  -2.5949 3.27358 1.03126
LeftShoulder1  1.13436 -1.73444 -14.6689
LeftArm  -25.3645 18.6109 -10.5612
LeftForeArm  3.90285 -4.40466 1.8579
LeftHand  -0.25398 0.0180481 5.50724
RightShoulder  1.49937 2.75115 17.3588
RightArm  -18.3777 -12.9308 4.38472
RightForeArm  1.21422 13.1334 4.06377
RightHand  -1.97288 6.44857 -19.5722
LeftUpLeg  0.658108 6.12238 -7.46949
LeftLeg  13.5545 20.9181 -1.39335
LeftFoot  -16.7755 -0.0599817 -3.37992
LeftToes  1.06246e-005 4.65854e-005 -8.18503e-006
